<?xml version="1.0" encoding="UTF-8"?>
<!DOCTYPE svg PUBLIC "-//W3C//DTD SVG 1.1//EN" "http://www.w3.org/Graphics/SVG/1.1/DTD/svg11.dtd">
<svg xmlns="http://www.w3.org/2000/svg" version="1.1" width="256px" height="256px" style="shape-rendering:geometricPrecision; text-rendering:geometricPrecision; image-rendering:optimizeQuality; fill-rule:evenodd; clip-rule:evenodd" xmlns:xlink="http://www.w3.org/1999/xlink">
<g><path style="opacity:0.873" fill="#000000" d="M 255.5,96.5 C 255.5,101.5 255.5,106.5 255.5,111.5C 252.418,113.069 249.585,112.735 247,110.5C 244.24,74.741 225.073,55.241 189.5,52C 185.128,49.805 184.461,46.805 187.5,43C 212.483,42.0749 231.983,51.9082 246,72.5C 250.279,80.1909 253.446,88.1909 255.5,96.5 Z"/></g>
<g><path style="opacity:0.869" fill="#000000" d="M 187.5,68.5 C 212.149,68.8189 226.149,81.1523 229.5,105.5C 230.82,111.681 228.487,113.848 222.5,112C 222,111.5 221.5,111 221,110.5C 219.607,90.7746 209.107,79.9412 189.5,78C 184.973,75.7184 184.306,72.5517 187.5,68.5 Z"/></g>
<g><path style="opacity:0.956" fill="#000000" d="M 157.5,85.5 C 174.607,84.8138 189.774,89.8138 203,100.5C 203.667,102.5 203.667,104.5 203,106.5C 198.466,110.699 194.299,115.199 190.5,120C 189.234,120.309 188.067,120.809 187,121.5C 167.272,108.128 149.272,110.128 133,127.5C 122.01,145.397 123.843,161.897 138.5,177C 149.988,185.832 162.488,187.665 176,182.5C 176.499,176.509 176.666,170.509 176.5,164.5C 170.158,164.666 163.825,164.5 157.5,164C 157,163.5 156.5,163 156,162.5C 155.186,154.587 155.353,146.754 156.5,139C 164.067,137.865 171.734,137.365 179.5,137.5C 186.5,137.667 193.5,137.833 200.5,138C 201.416,138.374 202.25,138.874 203,139.5C 203.667,158.833 203.667,178.167 203,197.5C 184.32,212.501 163.487,216.335 140.5,209C 109.192,194.892 95.6923,170.726 100,136.5C 107.794,106.532 126.961,89.5323 157.5,85.5 Z"/></g>
<g><path style="opacity:0.955" fill="#000000" d="M 15.5,90.5 C 37.1692,90.3334 58.8359,90.5 80.5,91C 81,91.5 81.5,92 82,92.5C 82.6667,99.8333 82.6667,107.167 82,114.5C 81.1667,115.333 80.3333,116.167 79.5,117C 65.1551,117.167 50.8217,117.667 36.5,118.5C 35.8333,120.5 35.1667,122.5 34.5,124.5C 51.1898,123.009 65.3564,128.343 77,140.5C 89.2768,158.603 89.6101,176.936 78,195.5C 64.2983,211.065 47.4649,215.899 27.5,210C 13.8161,204.474 4.81614,194.641 0.5,180.5C 1.06938,177.763 2.73605,176.263 5.5,176C 12.1456,174.763 18.8123,174.097 25.5,174C 28.0591,176.439 30.3925,179.105 32.5,182C 44.2719,188.187 53.1052,185.354 59,173.5C 59.8246,157.661 52.3246,150.828 36.5,153C 32.7971,154.851 29.1304,156.685 25.5,158.5C 18.8333,157 12.1667,155.5 5.5,154C 1.89564,152.666 0.728972,150.166 2,146.5C 5.88555,127.626 10.3856,108.96 15.5,90.5 Z"/></g>
</svg>
